#N canvas 1004 152 1018 934 10;
#X text 43 40 Widget midi slide;
#X obj 30 166 ctlin;
#X obj 31 195 pack 0 0;
#X obj 34 229 route;
#X obj 203 97 inlet;
#X obj 153 426 spigot;
#X obj 220 330 t b f;
#X obj 171 225 ==;
#X obj 186 370 &&;
#X obj 176 273 ||;
#X obj 202 221 < 0;
#X obj 185 248 t b f;
#X msg 271 91 lin;
#X obj 272 25 loadbang;
#X msg 523 220 1;
#X msg 556 219 0;
#X obj 217 481 -;
#X obj 217 515 / 127;
#X obj 163 552 *;
#X obj 153 473 spigot;
#X obj 183 450 i;
#X obj 164 584 +;
#X obj 100 717 outlet;
#X text 79 474 linear;
#X obj 339 472 spigot;
#X text 396 478 log;
#X obj 372 446 i;
#X msg 458 221 0;
#X msg 488 220 1;
#X obj 284 510 log;
#X obj 284 533 / 127;
#X obj 338 564 *;
#X obj 338 591 exp;
#X obj 339 624 +;
#X obj 95 156 f \$1;
#X obj 94 131 loadbang;
#X obj 596 265 loadbang;
#X obj 261 443 t b f;
#X obj 594 299 f \$3;
#X obj 628 297 f \$2;
#X obj 282 311 && 1;
#X obj 307 281 t b f;
#X obj 258 647 loadbang;
#X obj 256 675 symbol \$4;
#X obj 177 715 StatusDisplay;
#X obj 350 862 f \$1;
#X obj 372 950 pack 0 s 0;
#X text 450 943 send midi linked value to stats;
#X obj 375 951 s status;
#X obj 304 731 select 1;
#X obj 352 832 t b b;
#X obj 392 861 symbol \$4;
#X obj 382 732 select 0;
#X msg 383 755 1;
#X obj 369 780 i;
#X obj 312 758 t b b;
#X obj 354 810 spigot;
#X msg 315 782 0;
#X text 444 747 catch rising edges;
#X obj 257 809 t b f;
#X obj 112 685 nbx 5 14 -1e+37 1e+37 0 1 empty empty empty 0 -8 0 10
-262144 -1 -1 0 256;
#X msg 310 92 channel -1;
#X msg 413 117 id \$1;
#X obj 398 33 i \$5;
#X obj 416 61 select -1;
#X obj 494 102 s \$0-editpass;
#X msg 493 79 1;
#X obj 218 141 route editenable synthenable channel log lin id;
#X obj 249 210 i;
#X obj 233 239 ==;
#X obj 255 283 ||;
#X obj 269 228 r \$0-editpass;
#X obj 258 253 t b f;
#X text 305 204 edit enable;
#X text 149 194 channel;
#X connect 1 0 2 1;
#X connect 1 1 2 0;
#X connect 1 2 7 0;
#X connect 2 0 3 0;
#X connect 3 0 5 0;
#X connect 4 0 67 0;
#X connect 5 0 19 0;
#X connect 5 0 24 0;
#X connect 6 0 8 0;
#X connect 6 1 8 1;
#X connect 7 0 9 0;
#X connect 8 0 5 1;
#X connect 8 0 49 0;
#X connect 8 0 52 0;
#X connect 9 0 8 0;
#X connect 10 0 11 0;
#X connect 11 0 9 0;
#X connect 11 1 9 1;
#X connect 12 0 67 0;
#X connect 13 0 12 0;
#X connect 13 0 61 0;
#X connect 13 0 63 0;
#X connect 14 0 20 0;
#X connect 15 0 26 0;
#X connect 16 0 17 0;
#X connect 16 0 29 0;
#X connect 17 0 18 1;
#X connect 18 0 21 0;
#X connect 19 0 18 0;
#X connect 20 0 19 1;
#X connect 21 0 60 0;
#X connect 24 0 31 0;
#X connect 26 0 24 1;
#X connect 27 0 20 0;
#X connect 28 0 26 0;
#X connect 29 0 30 0;
#X connect 30 0 31 1;
#X connect 31 0 32 0;
#X connect 32 0 33 0;
#X connect 33 0 60 0;
#X connect 34 0 3 1;
#X connect 35 0 34 0;
#X connect 36 0 38 0;
#X connect 36 0 39 0;
#X connect 37 0 16 0;
#X connect 37 1 16 1;
#X connect 38 0 16 0;
#X connect 39 0 37 0;
#X connect 39 0 33 1;
#X connect 39 0 21 1;
#X connect 40 0 6 0;
#X connect 41 0 40 0;
#X connect 41 1 40 1;
#X connect 42 0 43 0;
#X connect 43 0 44 1;
#X connect 45 0 46 0;
#X connect 46 0 48 0;
#X connect 49 0 55 0;
#X connect 50 0 45 0;
#X connect 50 1 51 0;
#X connect 51 0 46 1;
#X connect 52 0 53 0;
#X connect 53 0 54 0;
#X connect 54 0 56 1;
#X connect 55 0 57 0;
#X connect 55 1 56 0;
#X connect 56 0 50 0;
#X connect 57 0 54 0;
#X connect 59 0 50 0;
#X connect 59 1 46 2;
#X connect 60 0 22 0;
#X connect 60 0 44 0;
#X connect 60 0 59 0;
#X connect 61 0 67 0;
#X connect 62 0 67 0;
#X connect 63 0 64 0;
#X connect 64 0 66 0;
#X connect 64 1 62 0;
#X connect 66 0 65 0;
#X connect 67 0 69 0;
#X connect 67 1 41 0;
#X connect 67 2 7 1;
#X connect 67 2 10 0;
#X connect 67 3 27 0;
#X connect 67 3 28 0;
#X connect 67 4 14 0;
#X connect 67 4 15 0;
#X connect 67 5 68 0;
#X connect 68 0 69 1;
#X connect 69 0 70 0;
#X connect 70 0 40 0;
#X connect 71 0 72 0;
#X connect 72 0 70 0;
#X connect 72 1 70 1;
