#N canvas 840 276 1481 1120 10;
#X text 51 55 Widget MIDI modulo increment;
#X obj 158 246 inlet;
#X obj 26 383 ctlin;
#X obj 24 491 route;
#X obj 24 413 pack 0 0;
#X obj 116 546 spigot;
#X obj 244 506 t b f;
#X obj 98 408 ==;
#X obj 154 512 &&;
#X obj 127 636 mod;
#X obj 348 530 -;
#X obj 386 500 t b f b f;
#X obj 103 748 outlet;
#X obj 115 572 t b;
#X obj 97 607 i;
#X obj 134 608 + 1;
#X obj 126 665 + 0;
#X obj 133 474 ||;
#X obj 132 406 < 0;
#X obj 142 449 t b f;
#X obj 50 467 f \$1;
#X obj 49 440 loadbang;
#X obj 425 418 loadbang;
#X obj 449 442 f \$2;
#X obj 382 392 loadbang;
#X obj 383 419 f \$3;
#X obj 712 494 loadbang;
#X obj 707 542 symbol \$4;
#X obj 619 572 StatusDisplay;
#X obj 620 544 spigot 1;
#X obj 126 698 nbx 5 14 -1e+37 1e+37 0 1 empty empty empty 0 -8 0 10
-262144 -1 -1 0 256;
#X obj 271 879 f \$1;
#X obj 293 967 pack 0 s 0;
#X text 371 960 send midi linked value to stats;
#X obj 295 1006 s status;
#X obj 225 748 select 1;
#X obj 273 849 t b b;
#X obj 313 878 symbol \$4;
#X obj 303 749 select 0;
#X msg 304 772 1;
#X obj 290 797 i;
#X obj 233 775 t b b;
#X obj 275 827 spigot;
#X msg 236 799 0;
#X text 365 764 catch rising edges;
#X obj 178 826 t b f;
#X msg 236 245 channel -1;
#X obj 355 481 i;
#X obj 424 472 i;
#X text 374 462 max;
#X text 450 475 min;
#X msg 323 248 preset 1;
#X obj 188 365 ==;
#X obj 204 334 i;
#X msg 410 252 id \$1;
#X text 55 78 MidiIncrement [CtlMidi] [Min] [Max] [Name] [Id];
#X obj 166 274 route editenable synthenable channel max min send id
preset;
#X text 223 349 editable;
#X text 271 465 synth selected;
#X obj 245 465 && 1;
#X obj 308 119 lbang;
#X obj 288 409 t b f;
#X obj 391 159 i \$5;
#X obj 413 196 select -1;
#X obj 491 237 s \$0-editpass;
#X msg 490 214 1;
#X obj 221 423 ||;
#X obj 235 368 r \$0-editpass;
#X obj 224 393 t b f;
#X connect 1 0 56 0;
#X connect 2 0 4 1;
#X connect 2 1 4 0;
#X connect 2 2 7 0;
#X connect 3 0 5 0;
#X connect 4 0 3 0;
#X connect 5 0 13 0;
#X connect 6 0 8 0;
#X connect 6 1 8 1;
#X connect 7 0 17 0;
#X connect 8 0 5 1;
#X connect 8 0 35 0;
#X connect 8 0 38 0;
#X connect 9 0 15 0;
#X connect 9 0 16 0;
#X connect 10 0 9 1;
#X connect 11 0 16 0;
#X connect 11 1 16 1;
#X connect 11 2 10 0;
#X connect 11 3 10 1;
#X connect 13 0 14 0;
#X connect 14 0 9 0;
#X connect 15 0 14 1;
#X connect 16 0 30 0;
#X connect 17 0 8 0;
#X connect 18 0 19 0;
#X connect 19 0 17 0;
#X connect 19 1 17 1;
#X connect 20 0 3 1;
#X connect 21 0 20 0;
#X connect 22 0 23 0;
#X connect 23 0 48 0;
#X connect 24 0 25 0;
#X connect 25 0 47 0;
#X connect 26 0 27 0;
#X connect 27 0 28 1;
#X connect 29 0 28 0;
#X connect 30 0 12 0;
#X connect 30 0 29 0;
#X connect 30 0 45 0;
#X connect 31 0 32 0;
#X connect 32 0 34 0;
#X connect 35 0 41 0;
#X connect 36 0 31 0;
#X connect 36 1 37 0;
#X connect 37 0 32 1;
#X connect 38 0 39 0;
#X connect 39 0 40 0;
#X connect 40 0 42 1;
#X connect 41 0 43 0;
#X connect 41 1 42 0;
#X connect 42 0 36 0;
#X connect 43 0 40 0;
#X connect 45 0 36 0;
#X connect 45 1 32 2;
#X connect 46 0 56 0;
#X connect 47 0 10 0;
#X connect 48 0 11 0;
#X connect 51 0 56 0;
#X connect 52 0 66 0;
#X connect 53 0 52 1;
#X connect 54 0 56 0;
#X connect 56 0 52 0;
#X connect 56 1 61 0;
#X connect 56 2 7 1;
#X connect 56 2 18 0;
#X connect 56 3 47 0;
#X connect 56 4 48 0;
#X connect 56 5 29 1;
#X connect 56 6 53 0;
#X connect 59 0 6 0;
#X connect 60 0 46 0;
#X connect 60 0 51 0;
#X connect 60 0 62 0;
#X connect 61 0 59 0;
#X connect 61 1 59 1;
#X connect 62 0 63 0;
#X connect 63 0 65 0;
#X connect 63 1 54 0;
#X connect 65 0 64 0;
#X connect 66 0 59 0;
#X connect 67 0 68 0;
#X connect 68 0 66 0;
#X connect 68 1 66 1;
