#N canvas 212 219 1294 959 10;
#X obj 400 658 +~;
#X obj 3 296 vradio 15 1 0 8 empty empty empty 0 -8 0 10 -262144 -1
-1 5;
#X text 19 312 line 1;
#X text 19 328 line 2;
#X text 19 343 line 3;
#X text 18 357 line 4;
#X text 21 298 disabled;
#X obj 798 413 WavetableGenerator;
#X obj 440 833 output~ 1 2 17 18;
#X obj 527 714 dac~ 17 18;
#X obj 125 484 StepSequencer;
#X msg 262 530 enable \$1;
#X obj 261 505 == 1;
#X msg 328 531 pass \$1;
#X obj 328 506 tgl 15 0 empty empty empty 17 7 0 10 -262144 -1 -1 0
1;
#X text 19 374 step sequencer;
#X obj 147 453 == 5;
#X msg 492 534 enable \$1;
#X msg 557 539 pass \$1;
#X obj 557 514 tgl 15 0 empty empty empty 17 7 0 10 -262144 -1 -1 0
1;
#X msg 692 540 enable \$1;
#X msg 758 541 pass \$1;
#X obj 758 516 tgl 15 0 empty empty empty 17 7 0 10 -262144 -1 -1 0
1;
#X msg 911 541 enable \$1;
#X msg 991 541 pass \$1;
#X obj 991 516 tgl 15 0 empty empty empty 17 7 0 10 -262144 -1 -1 1
1;
#X obj 490 513 == 2;
#X obj 691 515 == 3;
#X obj 910 516 == 4;
#X obj 138 516 route 1 2 3 4;
#X obj 106 27 r status;
#X text 74 443 osc6;
#X text 75 459 lfo;
#X text 74 471 carrier;
#X text 76 488 adsr;
#X obj 56 135 vradio 15 1 0 10 empty empty FM 0 -8 0 10 -262144 -1
-1 0;
#X text 75 153 osc1;
#X text 74 166 osc2;
#X text 75 182 osc3;
#X text 75 195 osc4;
#X text 74 210 osc5;
#X text 74 225 osc6;
#X text 75 241 lfo;
#X text 74 253 carrier;
#X text 76 270 adsr;
#X text 128 136 no edit;
#X floatatom 201 458 5 0 0 0 - - -;
#X floatatom 241 464 5 0 0 0 - - -;
#X obj 47 84 route FmEditSelect SidEditSelect;
#X obj 138 128 vradio 15 1 0 8 empty empty empty 0 -8 0 10 -262144
-1 -1 4;
#X text 159 145 osc1;
#X text 158 160 adsr1;
#X text 159 175 osc2;
#X text 158 190 adsr2;
#X text 158 204 osc3;
#X text 157 219 adsr3;
#X text 157 235 filter;
#X text 701 207 For Recording - Set to IAC Driver as IN/OUT for MIDI
Set to aggregate out for audio output Do this prior to setting outputs
TODO - have preset saving;
#X obj 221 615 *~;
#X obj 262 604 tgl 15 0 empty empty empty 17 7 0 10 -262144 -1 -1 1
1;
#X obj 418 616 *~;
#X obj 459 605 tgl 15 0 empty empty empty 17 7 0 10 -262144 -1 -1 1
1;
#X obj 525 623 *~;
#X obj 566 612 tgl 15 0 empty empty empty 17 7 0 10 -262144 -1 -1 1
1;
#X obj 687 633 *~;
#X obj 728 622 tgl 15 0 empty empty empty 17 7 0 10 -262144 -1 -1 1
1;
#X obj 43 58 route data;
#X obj 302 18 cnv 15 550 110 empty empty Knobs 20 12 0 14 -233017 -66577
0;
#X obj 303 135 cnv 15 400 200 empty empty Buttons 20 12 0 14 -233017
-66577 0;
#X obj 366 181 unpack s 0;
#X obj 451 217 nbx 5 14 -1e+37 1e+37 0 0 empty empty empty 0 -8 0 10
-262144 -1 -1 0 256;
#X symbolatom 353 215 15 0 0 0 - - -;
#X obj 526 182 unpack s 0;
#X obj 611 218 nbx 5 14 -1e+37 1e+37 0 0 empty empty empty 0 -8 0 10
-262144 -1 -1 0 256;
#X symbolatom 513 216 15 0 0 0 - - -;
#X obj 363 265 unpack s 0;
#X obj 448 301 nbx 5 14 -1e+37 1e+37 0 0 empty empty empty 0 -8 0 10
-262144 -1 -1 2 256;
#X symbolatom 350 299 15 0 0 0 - - -;
#X obj 529 264 unpack s 0;
#X obj 614 300 nbx 5 14 -1e+37 1e+37 0 0 empty empty empty 0 -8 0 10
-262144 -1 -1 0 256;
#X symbolatom 516 298 15 0 0 0 - - -;
#X obj 339 159 route 48 49;
#X obj 312 237 route 50 51;
#X obj 319 40 route 20 21 22 23;
#X obj 320 74 unpack s 0;
#X symbolatom 318 96 10 0 0 0 - - -;
#X obj 386 99 nbx 5 14 -1e+37 1e+37 0 0 empty empty empty 0 -8 0 10
-262144 -1 -1 146.142 256;
#X obj 449 76 unpack s 0;
#X symbolatom 447 98 10 0 0 0 - - -;
#X obj 515 101 nbx 5 14 -1e+37 1e+37 0 0 empty empty empty 0 -8 0 10
-262144 -1 -1 41.3386 256;
#X obj 580 79 unpack s 0;
#X symbolatom 578 101 10 0 0 0 - - -;
#X obj 646 104 nbx 5 14 -1e+37 1e+37 0 0 empty empty empty 0 -8 0 10
-262144 -1 -1 0.866142 256;
#X obj 711 82 unpack s 0;
#X symbolatom 709 104 10 0 0 0 - - -;
#X obj 777 107 nbx 5 14 -1e+37 1e+37 0 0 empty empty empty 0 -8 0 10
-262144 -1 -1 94.4882 256;
#X text 803 390 create tables for table oscillators;
#X text 367 125 comment;
#X obj 223 571 SynthChannel 1;
#X obj 468 579 SynthChannel 2;
#X obj 668 582 SynthChannel 3;
#X obj 876 576 SynthChannel 4;
#X msg 244 439 15;
#X obj 232 408 lbang;
#X msg 387 533 synth \$1;
#X obj 389 493 vradio 15 1 0 2 empty empty empty 0 -8 0 10 -262144
-1 -1 1;
#X msg 611 536 synth \$1;
#X obj 613 496 vradio 15 1 0 2 empty empty empty 0 -8 0 10 -262144
-1 -1 1;
#X msg 813 537 synth \$1;
#X obj 815 497 vradio 15 1 0 2 empty empty empty 0 -8 0 10 -262144
-1 -1 1;
#X msg 1052 541 synth \$1;
#X obj 1054 501 vradio 15 1 0 2 empty empty empty 0 -8 0 10 -262144
-1 -1 1;
#X obj 59 577 vradio 15 1 0 2 empty empty empty 0 -8 0 10 -262144 -1
-1 1;
#X text -24 570 mute/unmute;
#X connect 0 0 8 0;
#X connect 0 0 8 1;
#X connect 0 0 9 0;
#X connect 0 0 9 1;
#X connect 1 0 12 0;
#X connect 1 0 16 0;
#X connect 1 0 26 0;
#X connect 1 0 27 0;
#X connect 1 0 28 0;
#X connect 10 0 29 0;
#X connect 11 0 98 1;
#X connect 12 0 11 0;
#X connect 13 0 98 1;
#X connect 14 0 13 0;
#X connect 16 0 10 0;
#X connect 17 0 99 1;
#X connect 18 0 99 1;
#X connect 19 0 18 0;
#X connect 20 0 100 1;
#X connect 21 0 100 1;
#X connect 22 0 21 0;
#X connect 23 0 101 1;
#X connect 24 0 101 1;
#X connect 25 0 24 0;
#X connect 26 0 17 0;
#X connect 27 0 20 0;
#X connect 28 0 23 0;
#X connect 29 0 98 0;
#X connect 29 1 99 0;
#X connect 29 2 100 0;
#X connect 29 3 101 0;
#X connect 30 0 66 0;
#X connect 30 0 83 0;
#X connect 30 0 81 0;
#X connect 30 0 82 0;
#X connect 46 0 10 1;
#X connect 47 0 10 2;
#X connect 48 0 35 0;
#X connect 48 1 49 0;
#X connect 58 0 0 0;
#X connect 59 0 58 1;
#X connect 60 0 0 0;
#X connect 61 0 60 1;
#X connect 62 0 0 0;
#X connect 63 0 62 1;
#X connect 64 0 0 0;
#X connect 65 0 64 1;
#X connect 66 0 48 0;
#X connect 69 0 71 0;
#X connect 69 1 70 0;
#X connect 72 0 74 0;
#X connect 72 1 73 0;
#X connect 75 0 77 0;
#X connect 75 1 76 0;
#X connect 78 0 80 0;
#X connect 78 1 79 0;
#X connect 81 0 69 0;
#X connect 81 1 72 0;
#X connect 82 0 75 0;
#X connect 82 1 78 0;
#X connect 83 0 84 0;
#X connect 83 1 87 0;
#X connect 83 2 90 0;
#X connect 83 3 93 0;
#X connect 84 0 85 0;
#X connect 84 1 86 0;
#X connect 87 0 88 0;
#X connect 87 1 89 0;
#X connect 90 0 91 0;
#X connect 90 1 92 0;
#X connect 93 0 94 0;
#X connect 93 1 95 0;
#X connect 98 0 58 0;
#X connect 99 0 60 0;
#X connect 100 0 62 0;
#X connect 101 0 64 0;
#X connect 102 0 47 0;
#X connect 103 0 102 0;
#X connect 104 0 98 1;
#X connect 105 0 104 0;
#X connect 106 0 99 1;
#X connect 107 0 106 0;
#X connect 108 0 100 1;
#X connect 109 0 108 0;
#X connect 110 0 101 1;
#X connect 111 0 110 0;
#X connect 112 0 59 0;
#X connect 112 0 61 0;
#X connect 112 0 63 0;
#X connect 112 0 65 0;
