#N canvas 323 247 915 808 10;
#X text 300 33 Simple poly synth;
#X obj 429 138 notein;
#X obj 419 347 route 1 2 3 4 5;
#X obj 437 317 pack 0 0 0;
#X obj 325 71 WavetableGenerator;
#X obj 258 453 SidGen;
#X obj 257 413 unpack 0 0;
#X msg 169 368 editenable 1;
#X msg 167 394 channel -1;
#X obj 112 334 loadbang;
#X obj 114 360 bng 15 250 50 0 empty empty empty 17 7 0 10 -262144
-1 -1;
#X obj 138 544 vradio 15 1 0 8 empty empty empty 0 -8 0 10 -262144
-1 -1 0;
#X text 159 561 osc1;
#X text 158 576 adsr1;
#X text 159 591 osc2;
#X text 158 606 adsr2;
#X text 158 620 osc3;
#X text 157 635 adsr3;
#X text 157 651 filter;
#X obj 139 511 route editmode;
#X obj 297 709 output~;
#X obj 87 45 r status;
#X floatatom 143 228 5 0 0 0 - - -;
#X obj 155 150 t f b;
#X msg 171 177 0;
#X msg 212 175 1;
#X obj 154 207 tgl 15 0 empty empty empty 17 7 0 10 -262144 -1 -1 1
1;
#X obj 239 149 t s b;
#X msg 286 176 1;
#X obj 239 206 tgl 15 0 empty empty empty 17 7 0 10 -262144 -1 -1 0
1;
#X msg 253 177 0;
#X symbolatom 204 229 10 0 0 0 - - -;
#X obj 155 97 route float symbol list;
#X obj 310 142 t b;
#X msg 331 172 0;
#X msg 364 172 1;
#X obj 317 193 tgl 15 0 empty empty empty 17 7 0 10 -262144 -1 -1 0
1;
#X obj 313 218 unpack 0 0;
#X floatatom 312 244 5 0 0 0 - - -;
#X floatatom 368 243 5 0 0 0 - - -;
#X obj 76 192 symbol;
#X symbolatom 26 230 15 0 0 0 - - -;
#X obj 81 70 route label value data;
#X obj 444 287 poly 5;
#X obj 338 454 SidGen;
#X obj 337 414 unpack 0 0;
#X obj 413 451 SidGen;
#X obj 412 411 unpack 0 0;
#X obj 495 452 SidGen;
#X obj 494 412 unpack 0 0;
#X obj 575 452 SidGen;
#X obj 574 412 unpack 0 0;
#X obj 310 613 +~;
#X obj 455 243 spigot;
#X obj 495 194 ||;
#X obj 520 164 < 60;
#X obj 501 243 spigot;
#X obj 608 135 notein;
#X msg 501 60 split;
#X msg 559 60 continuous;
#X obj 507 90 select split continuous;
#X obj 493 135 i;
#X connect 1 0 53 0;
#X connect 1 0 55 0;
#X connect 1 1 56 0;
#X connect 2 0 6 0;
#X connect 2 1 45 0;
#X connect 2 2 47 0;
#X connect 2 3 49 0;
#X connect 2 4 51 0;
#X connect 3 0 2 0;
#X connect 5 0 52 0;
#X connect 5 1 19 0;
#X connect 6 0 5 0;
#X connect 6 1 5 1;
#X connect 7 0 5 2;
#X connect 7 0 44 2;
#X connect 7 0 46 2;
#X connect 7 0 48 2;
#X connect 7 0 50 2;
#X connect 8 0 5 2;
#X connect 8 0 44 2;
#X connect 8 0 46 2;
#X connect 8 0 48 2;
#X connect 8 0 50 2;
#X connect 9 0 10 0;
#X connect 10 0 7 0;
#X connect 10 0 8 0;
#X connect 19 0 11 0;
#X connect 21 0 42 0;
#X connect 23 0 22 0;
#X connect 23 1 25 0;
#X connect 23 1 24 0;
#X connect 24 0 29 0;
#X connect 24 0 36 0;
#X connect 25 0 26 0;
#X connect 27 0 31 0;
#X connect 27 1 30 0;
#X connect 27 1 28 0;
#X connect 28 0 29 0;
#X connect 30 0 26 0;
#X connect 30 0 36 0;
#X connect 32 0 23 0;
#X connect 32 1 27 0;
#X connect 32 2 33 0;
#X connect 32 2 37 0;
#X connect 33 0 34 0;
#X connect 33 0 35 0;
#X connect 34 0 29 0;
#X connect 34 0 26 0;
#X connect 35 0 36 0;
#X connect 37 0 38 0;
#X connect 37 1 39 0;
#X connect 40 0 41 0;
#X connect 42 0 40 0;
#X connect 42 1 32 0;
#X connect 43 0 3 0;
#X connect 43 1 3 1;
#X connect 43 2 3 2;
#X connect 44 0 52 0;
#X connect 45 0 44 0;
#X connect 45 1 44 1;
#X connect 46 0 52 0;
#X connect 47 0 46 0;
#X connect 47 1 46 1;
#X connect 48 0 52 0;
#X connect 49 0 48 0;
#X connect 49 1 48 1;
#X connect 50 0 52 0;
#X connect 51 0 50 0;
#X connect 51 1 50 1;
#X connect 52 0 20 0;
#X connect 52 0 20 1;
#X connect 53 0 43 0;
#X connect 54 0 53 1;
#X connect 54 0 56 1;
#X connect 55 0 54 1;
#X connect 56 0 43 1;
#X connect 58 0 60 0;
#X connect 59 0 60 0;
