#N canvas 45 41 2560 1317 10;
#X text 40 68 SID Subtractive Generator;
#X obj 29 444 vradio 15 1 0 8 empty empty empty 0 -8 0 10 -262144 -1
-1 2;
#X msg 28 574 set \$1wavetable;
#X obj 37 281 s \$0-resetphase;
#X msg 38 257 0;
#X obj 141 594 tabread4~ 1wavetable;
#X obj 136 567 DutyCycle;
#X obj 174 1178 bsaylor/aenv~;
#X floatatom 287 1143 5 0 0 0 - - -;
#X floatatom 330 1143 5 0 0 0 - - -;
#X floatatom 373 1143 5 0 0 0 - - -;
#X floatatom 416 1143 5 0 0 0 - - -;
#X obj 287 1068 vsl 8 64 10 2000 0 1 empty empty attack 0 -8 0 8 -262144
-1 -1 50 1;
#X obj 330 1068 vsl 8 64 10 2000 0 1 empty empty decay 0 -8 0 8 -262144
-1 -1 248 1;
#X obj 416 1068 vsl 8 64 10 2000 0 1 empty empty release 0 -8 0 8 -262144
-1 -1 5004 1;
#X obj 373 1068 vsl 8 64 0 1 0 1 empty empty sustain 0 -8 0 8 -262144
-1 -1 6002 1;
#X msg 247 1066 lina;
#X msg 247 1097 loga;
#X msg 247 1126 zero;
#X obj 111 1258 *~;
#X obj 59 139 inlet;
#X obj 115 148 inlet;
#X obj 114 177 s \$0-velocity;
#X obj 157 1075 r \$0-velocity;
#X obj 176 834 r~ \$0-ringmodulate2;
#X obj 15 645 s~ \$0-ringmodulate1;
#X obj 167 884 *~;
#X msg 180 704 2;
#X msg 234 707 3;
#X obj 1006 265 lop~;
#X obj 1140 253 bp~;
#X obj 1251 259 hip~;
#X msg 206 801 set \$1-ringmodulate\$2;
#X obj 191 754 f \$0;
#X obj 200 731 t b f;
#X obj 208 776 pack 0 0;
#X obj 324 1616 throw~ \$0-lowpass;
#X msg 361 1587 set \$1-\$2;
#X obj 879 231 catch~ \$0-lowpass;
#X msg 389 1495 symbol lowpass;
#X obj 384 1541 f \$0;
#X obj 387 1516 t b s;
#X obj 394 1563 pack 0 s;
#X obj 211 910 +~;
#X obj 36 194 s \$0-pitch;
#X obj 105 527 r \$0-pitch;
#X obj 331 167 inlet;
#X obj 331 231 s \$0-enable;
#X text 331 144 edit enable;
#X obj 331 190 route editenable channel;
#X obj 414 230 s \$0-channel;
#X obj 500 187 s \$0-args;
#X obj 762 143 r \$0-args;
#X msg 501 151 channel -1;
#X obj 693 225 s \$0-editselect;
#X text 51 460 sine;
#X obj 218 527 hsl 128 15 1 99 0 0 empty empty Duty_Cycle -2 -8 0 10
-262144 -1 -1 600 1;
#X obj 352 850 hsl 128 15 0 1 0 0 empty empty RingModulate -2 -8 0
10 -262144 -1 -1 100 1;
#X obj 169 684 select 0;
#X obj 239 685 select 1;
#X obj 693 200 hradio 15 1 0 8 empty empty empty 0 -8 0 10 -262144
-1 -1 5;
#X obj 278 768 hradio 15 1 0 3 empty empty empty 0 -8 0 10 -262144
-1 -1 1;
#X obj 255 747 - 1;
#X obj 503 1463 select 0;
#X obj 573 1464 select 1;
#X obj 635 1463 select 2;
#X msg 490 1496 symbol bandpass;
#X msg 611 1498 symbol highpass;
#X obj 1126 217 catch~ \$0-bandpass;
#X obj 392 1458 s \$0-filterselect;
#X obj 859 67 r \$0-filterselect;
#X obj 859 101 hradio 15 1 0 8 empty empty empty 0 -8 0 10 -262144
-1 -1 0;
#X msg 1019 142 log;
#X obj 998 108 loadbang;
#X obj 1063 156 hsl 128 15 10 20000 0 0 empty empty Freq -2 -8 0 10
-262144 -1 -1 829 1;
#X obj 1256 183 hsl 128 15 0 12 0 0 empty empty Q -2 -8 0 10 -262144
-1 -1 1900 1;
#X obj 1250 222 catch~ \$0-highpass;
#X obj 126 1353 *~;
#X obj 189 1339 hsl 128 15 0 1.5 0 0 empty empty empty -2 -8 0 10 -262144
-1 -1 9700 1;
#X obj 142 917 *~;
#X obj 242 890 <~ 0.1;
#X obj 1898 169 r \$0-editselect;
#X obj 1896 239 outlet;
#X msg 1896 206 editmode \$1;
#X obj 1023 296 *~;
#X obj 1419 233 f;
#X msg 1491 210 1;
#X obj 1517 175 loadbang;
#X floatatom 1434 282 5 0 0 0 - - -;
#X obj 121 1384 throw~ \$0-oscout;
#X obj 271 1539 catch~ \$0-oscout;
#X msg 658 250 editenable \$1;
#X obj 658 277 s \$0-args;
#X obj -13 398 r \$0-args;
#X obj 693 173 MidiIncrement 48 0 8 SidEditSelect -1;
#X obj -14 423 MidiIncrement 49 1 8 WaveSelect 1;
#X msg 571 152 synthenable 1;
#X obj 217 475 MidiSlider 20 1 99 DutyCycle 1;
#X obj 217 447 r \$0-args;
#X obj 350 769 r \$0-args;
#X obj 171 631 r \$0-args;
#X obj 351 798 MidiSlider 21 0 1 RingIntensity 1;
#X obj 171 659 MidiIncrement 50 0 2 RingSelect 1;
#X obj 197 1003 MidiSlider 20 10 2000 OscAttack 2;
#X obj 332 955 MidiSlider 21 10 2000 OscDecay 2;
#X obj 373 978 MidiSlider 22 0 1 OscSustain 2;
#X obj 413 1020 MidiSlider 23 0 2000 OscRelease 2;
#X obj 329 921 r \$0-args;
#X obj 186 1314 MidiSlider 22 0 1.5 Osc1Vol 1;
#X obj 505 1438 MidiIncrement 49 0 3 FilterSelect 7;
#X obj 189 1287 r \$0-args;
#X obj 505 1406 r \$0-args;
#X obj 650 421 vradio 15 1 0 8 empty empty empty 0 -8 0 10 -262144
-1 -1 6;
#X msg 649 551 set \$1wavetable;
#X obj 762 571 tabread4~ 1wavetable;
#X obj 757 544 DutyCycle;
#X obj 795 1155 bsaylor/aenv~;
#X floatatom 908 1120 5 0 0 0 - - -;
#X floatatom 951 1120 5 0 0 0 - - -;
#X floatatom 994 1120 5 0 0 0 - - -;
#X floatatom 1037 1120 5 0 0 0 - - -;
#X obj 908 1045 vsl 8 64 10 2000 0 1 empty empty attack 0 -8 0 8 -262144
-1 -1 50 1;
#X obj 951 1045 vsl 8 64 10 2000 0 1 empty empty decay 0 -8 0 8 -262144
-1 -1 50 1;
#X obj 1037 1045 vsl 8 64 10 2000 0 1 empty empty release 0 -8 0 8
-262144 -1 -1 0 1;
#X obj 994 1045 vsl 8 64 0 1 0 1 empty empty sustain 0 -8 0 8 -262144
-1 -1 5655 1;
#X msg 868 1043 lina;
#X msg 868 1074 loga;
#X msg 868 1103 zero;
#X obj 732 1235 *~;
#X obj 778 1052 r \$0-velocity;
#X obj 788 861 *~;
#X msg 855 684 3;
#X msg 827 778 set \$1-ringmodulate\$2;
#X obj 812 731 f \$0;
#X obj 821 708 t b f;
#X obj 829 753 pack 0 0;
#X obj 832 887 +~;
#X obj 707 449 r \$0-pitch;
#X text 672 437 sine;
#X obj 1014 494 hsl 128 15 1 99 0 0 empty empty Duty_Cycle -2 -8 0
10 -262144 -1 -1 11300 1;
#X obj 973 827 hsl 128 15 0 1 0 0 empty empty RingModulate -2 -8 0
10 -262144 -1 -1 100 1;
#X obj 790 661 select 0;
#X obj 860 662 select 1;
#X obj 899 745 hradio 15 1 0 3 empty empty empty 0 -8 0 10 -262144
-1 -1 1;
#X obj 876 724 - 1;
#X obj 747 1330 *~;
#X obj 810 1316 hsl 128 15 0 1.5 0 0 empty empty empty -2 -8 0 10 -262144
-1 -1 5000 1;
#X obj 763 894 *~;
#X obj 863 867 <~ 0.1;
#X obj 742 1361 throw~ \$0-oscout;
#X obj 608 375 r \$0-args;
#X obj 1013 414 r \$0-args;
#X obj 971 746 r \$0-args;
#X obj 792 608 r \$0-args;
#X obj 950 898 r \$0-args;
#X obj 810 1264 r \$0-args;
#X obj 607 400 MidiIncrement 49 1 8 WaveSelect 3;
#X obj 1013 442 MidiSlider 20 1 99 DutyCycle 3;
#X obj 792 636 MidiIncrement 50 0 2 RingSelect 3;
#X obj 973 774 MidiSlider 21 0 1 RingIntensity 3;
#X obj 818 980 MidiSlider 20 10 2000 OscAttack 4;
#X obj 953 932 MidiSlider 21 10 2000 OscDecay 4;
#X obj 994 955 MidiSlider 22 0 1 OscSustain 4;
#X obj 1034 997 MidiSlider 23 0 2000 OscRelease 4;
#X obj 1258 423 vradio 15 1 0 8 empty empty empty 0 -8 0 10 -262144
-1 -1 1;
#X msg 1257 553 set \$1wavetable;
#X obj 1370 573 tabread4~ 1wavetable;
#X obj 1365 546 DutyCycle;
#X obj 1403 1157 bsaylor/aenv~;
#X floatatom 1516 1122 5 0 0 0 - - -;
#X floatatom 1559 1122 5 0 0 0 - - -;
#X floatatom 1602 1122 5 0 0 0 - - -;
#X floatatom 1645 1122 5 0 0 0 - - -;
#X obj 1516 1047 vsl 8 64 10 2000 0 1 empty empty attack 0 -8 0 8 -262144
-1 -1 3472 1;
#X obj 1559 1047 vsl 8 64 10 2000 0 1 empty empty decay 0 -8 0 8 -262144
-1 -1 4117 1;
#X obj 1645 1047 vsl 8 64 10 2000 0 1 empty empty release 0 -8 0 8
-262144 -1 -1 0 1;
#X obj 1602 1047 vsl 8 64 0 1 0 1 empty empty sustain 0 -8 0 8 -262144
-1 -1 0 1;
#X msg 1476 1045 lina;
#X msg 1476 1076 loga;
#X msg 1476 1105 zero;
#X obj 1340 1237 *~;
#X obj 1386 1054 r \$0-velocity;
#X obj 1396 863 *~;
#X msg 1435 780 set \$1-ringmodulate\$2;
#X obj 1420 733 f \$0;
#X obj 1429 710 t b f;
#X obj 1437 755 pack 0 0;
#X obj 1440 889 +~;
#X obj 1329 477 r \$0-pitch;
#X text 1280 439 sine;
#X obj 1681 508 hsl 128 15 1 99 0 0 empty empty Duty_Cycle -2 -8 0
10 -262144 -1 -1 3300 1;
#X obj 1581 829 hsl 128 15 0 1 0 0 empty empty RingModulate -2 -8 0
10 -262144 -1 -1 0 1;
#X obj 1398 663 select 0;
#X obj 1468 664 select 1;
#X obj 1507 747 hradio 15 1 0 3 empty empty empty 0 -8 0 10 -262144
-1 -1 1;
#X obj 1484 726 - 1;
#X obj 1355 1332 *~;
#X obj 1418 1318 hsl 128 15 0 1.5 0 0 empty empty empty -2 -8 0 10
-262144 -1 -1 9900 1;
#X obj 1371 896 *~;
#X obj 1471 869 <~ 0.1;
#X obj 1350 1363 throw~ \$0-oscout;
#X obj 1216 377 r \$0-args;
#X obj 1680 428 r \$0-args;
#X obj 1579 748 r \$0-args;
#X obj 1400 610 r \$0-args;
#X obj 1558 900 r \$0-args;
#X obj 1418 1266 r \$0-args;
#X obj 1215 402 MidiIncrement 49 1 8 WaveSelect 5;
#X obj 807 1291 MidiSlider 22 0 1.5 Osc1Vol 3;
#X obj 1680 456 MidiSlider 20 1 99 DutyCycle 5;
#X obj 1400 638 MidiIncrement 50 0 2 RingSelect 5;
#X obj 1581 776 MidiSlider 21 0 1 RingIntensity 5;
#X obj 1561 934 MidiSlider 21 10 2000 OscDecay 6;
#X obj 1426 982 MidiSlider 20 10 2000 OscAttack 6;
#X obj 1602 957 MidiSlider 22 0 1 OscSustain 6;
#X obj 1642 999 MidiSlider 23 0 2000 OscRelease 6;
#X obj 1415 1293 MidiSlider 22 0 1.5 Osc1Vol 5;
#X obj 1066 82 r \$0-args;
#X obj 1061 125 MidiSlider 20 10 20000 FilterFreq 7;
#X obj 1254 152 MidiSlider 21 0 12 FilterQ 7;
#X obj 1416 127 MidiSlider 22 0 2 MasterSidVol 7;
#X obj 636 622 s~ \$0-ringmodulate2;
#X obj 1242 623 s~ \$0-ringmodulate3;
#X obj 797 811 r~ \$0-ringmodulate1;
#X obj 1405 813 r~ \$0-ringmodulate1;
#X msg 801 681 1;
#X msg 1409 683 1;
#X msg 1463 686 2;
#X obj 1026 354 outlet~;
#X obj 1026 330 *~;
#X obj 723 522 *;
#X obj 822 437 / 12;
#X obj 818 458 pow 2;
#X obj 1352 514 *;
#X obj 826 409 i;
#X obj 824 377 MidiSlider 23 0 13 PitchOffset 3;
#X obj 1458 416 i;
#X obj 1463 443 / 12;
#X obj 1461 477 pow 2;
#X obj 1458 390 MidiSlider 23 0 13 PitchOffset 5;
#X connect 1 0 2 0;
#X connect 2 0 5 0;
#X connect 4 0 3 0;
#X connect 5 0 25 0;
#X connect 5 0 79 0;
#X connect 6 0 5 0;
#X connect 7 0 19 1;
#X connect 8 0 7 1;
#X connect 9 0 7 2;
#X connect 10 0 7 3;
#X connect 11 0 7 4;
#X connect 12 0 8 0;
#X connect 13 0 9 0;
#X connect 14 0 11 0;
#X connect 15 0 10 0;
#X connect 16 0 7 0;
#X connect 17 0 7 0;
#X connect 18 0 7 0;
#X connect 19 0 77 0;
#X connect 20 0 44 0;
#X connect 21 0 22 0;
#X connect 23 0 7 0;
#X connect 24 0 26 0;
#X connect 26 0 43 0;
#X connect 27 0 34 0;
#X connect 28 0 34 0;
#X connect 29 0 84 0;
#X connect 30 0 84 0;
#X connect 31 0 84 0;
#X connect 32 0 24 0;
#X connect 33 0 35 0;
#X connect 34 0 33 0;
#X connect 34 1 35 1;
#X connect 34 1 62 0;
#X connect 35 0 32 0;
#X connect 37 0 36 0;
#X connect 38 0 29 0;
#X connect 39 0 41 0;
#X connect 40 0 42 0;
#X connect 41 0 40 0;
#X connect 41 1 42 1;
#X connect 42 0 37 0;
#X connect 43 0 79 1;
#X connect 45 0 6 0;
#X connect 46 0 49 0;
#X connect 46 0 51 0;
#X connect 49 0 47 0;
#X connect 49 1 50 0;
#X connect 52 0 94 0;
#X connect 53 0 51 0;
#X connect 53 0 49 0;
#X connect 56 0 6 1;
#X connect 57 0 26 1;
#X connect 57 0 80 0;
#X connect 58 0 27 0;
#X connect 59 0 28 0;
#X connect 60 0 54 0;
#X connect 60 0 91 0;
#X connect 62 0 61 0;
#X connect 63 0 39 0;
#X connect 64 0 66 0;
#X connect 65 0 67 0;
#X connect 66 0 41 0;
#X connect 67 0 41 0;
#X connect 68 0 30 0;
#X connect 70 0 71 0;
#X connect 72 0 218 0;
#X connect 73 0 72 0;
#X connect 74 0 29 1;
#X connect 74 0 30 1;
#X connect 74 0 31 0;
#X connect 75 0 30 2;
#X connect 76 0 31 0;
#X connect 77 0 89 0;
#X connect 78 0 77 1;
#X connect 79 0 19 0;
#X connect 80 0 43 1;
#X connect 81 0 83 0;
#X connect 83 0 82 0;
#X connect 84 0 229 0;
#X connect 85 0 88 0;
#X connect 85 0 84 1;
#X connect 86 0 85 0;
#X connect 87 0 86 0;
#X connect 88 0 229 1;
#X connect 90 0 36 0;
#X connect 91 0 92 0;
#X connect 93 0 95 0;
#X connect 94 0 60 0;
#X connect 95 0 1 0;
#X connect 96 0 51 0;
#X connect 96 0 49 0;
#X connect 97 0 56 0;
#X connect 98 0 97 0;
#X connect 99 0 101 0;
#X connect 100 0 102 0;
#X connect 101 0 57 0;
#X connect 102 0 58 0;
#X connect 102 0 59 0;
#X connect 103 0 12 0;
#X connect 104 0 13 0;
#X connect 105 0 15 0;
#X connect 106 0 14 0;
#X connect 107 0 103 0;
#X connect 107 0 104 0;
#X connect 107 0 105 0;
#X connect 107 0 106 0;
#X connect 108 0 78 0;
#X connect 109 0 63 0;
#X connect 109 0 64 0;
#X connect 109 0 65 0;
#X connect 109 0 69 0;
#X connect 110 0 108 0;
#X connect 111 0 109 0;
#X connect 112 0 113 0;
#X connect 113 0 114 0;
#X connect 114 0 147 0;
#X connect 114 0 221 0;
#X connect 115 0 114 0;
#X connect 116 0 128 1;
#X connect 117 0 116 1;
#X connect 118 0 116 2;
#X connect 119 0 116 3;
#X connect 120 0 116 4;
#X connect 121 0 117 0;
#X connect 122 0 118 0;
#X connect 123 0 120 0;
#X connect 124 0 119 0;
#X connect 125 0 116 0;
#X connect 126 0 116 0;
#X connect 127 0 116 0;
#X connect 128 0 145 0;
#X connect 129 0 116 0;
#X connect 130 0 136 0;
#X connect 131 0 134 0;
#X connect 132 0 223 0;
#X connect 133 0 135 0;
#X connect 134 0 133 0;
#X connect 134 1 135 1;
#X connect 134 1 144 0;
#X connect 135 0 132 0;
#X connect 136 0 147 1;
#X connect 137 0 230 0;
#X connect 139 0 115 1;
#X connect 140 0 130 1;
#X connect 140 0 148 0;
#X connect 141 0 225 0;
#X connect 142 0 131 0;
#X connect 144 0 143 0;
#X connect 145 0 149 0;
#X connect 146 0 145 1;
#X connect 147 0 128 0;
#X connect 148 0 136 1;
#X connect 150 0 156 0;
#X connect 150 0 235 0;
#X connect 151 0 157 0;
#X connect 152 0 159 0;
#X connect 153 0 158 0;
#X connect 154 0 160 0;
#X connect 154 0 161 0;
#X connect 154 0 162 0;
#X connect 154 0 163 0;
#X connect 155 0 208 0;
#X connect 156 0 112 0;
#X connect 157 0 139 0;
#X connect 158 0 141 0;
#X connect 158 0 142 0;
#X connect 159 0 140 0;
#X connect 160 0 121 0;
#X connect 161 0 122 0;
#X connect 162 0 124 0;
#X connect 163 0 123 0;
#X connect 164 0 165 0;
#X connect 165 0 166 0;
#X connect 166 0 198 0;
#X connect 166 0 222 0;
#X connect 167 0 166 0;
#X connect 168 0 180 1;
#X connect 169 0 168 1;
#X connect 170 0 168 2;
#X connect 171 0 168 3;
#X connect 172 0 168 4;
#X connect 173 0 169 0;
#X connect 174 0 170 0;
#X connect 175 0 172 0;
#X connect 176 0 171 0;
#X connect 177 0 168 0;
#X connect 178 0 168 0;
#X connect 179 0 168 0;
#X connect 180 0 196 0;
#X connect 181 0 168 0;
#X connect 182 0 187 0;
#X connect 183 0 224 0;
#X connect 184 0 186 0;
#X connect 185 0 184 0;
#X connect 185 1 186 1;
#X connect 185 1 195 0;
#X connect 186 0 183 0;
#X connect 187 0 198 1;
#X connect 188 0 233 0;
#X connect 190 0 167 1;
#X connect 191 0 182 1;
#X connect 191 0 199 0;
#X connect 192 0 226 0;
#X connect 193 0 227 0;
#X connect 195 0 194 0;
#X connect 196 0 200 0;
#X connect 197 0 196 1;
#X connect 198 0 180 0;
#X connect 199 0 187 1;
#X connect 201 0 207 0;
#X connect 201 0 239 0;
#X connect 202 0 209 0;
#X connect 203 0 211 0;
#X connect 204 0 210 0;
#X connect 205 0 212 0;
#X connect 205 0 213 0;
#X connect 205 0 214 0;
#X connect 205 0 215 0;
#X connect 206 0 216 0;
#X connect 207 0 164 0;
#X connect 208 0 146 0;
#X connect 209 0 190 0;
#X connect 210 0 192 0;
#X connect 210 0 193 0;
#X connect 211 0 191 0;
#X connect 212 0 174 0;
#X connect 213 0 173 0;
#X connect 214 0 176 0;
#X connect 215 0 175 0;
#X connect 216 0 197 0;
#X connect 217 0 218 0;
#X connect 217 0 219 0;
#X connect 217 0 220 0;
#X connect 218 0 74 0;
#X connect 219 0 75 0;
#X connect 220 0 85 0;
#X connect 223 0 130 0;
#X connect 224 0 182 0;
#X connect 225 0 134 0;
#X connect 226 0 185 0;
#X connect 227 0 185 0;
#X connect 229 0 228 0;
#X connect 230 0 115 0;
#X connect 231 0 232 0;
#X connect 232 0 230 1;
#X connect 233 0 167 0;
#X connect 234 0 231 0;
#X connect 235 0 234 0;
#X connect 236 0 237 0;
#X connect 237 0 238 0;
#X connect 238 0 233 1;
#X connect 239 0 236 0;
