#N canvas 1038 538 999 660 10;
#X obj 44 67 inlet;
#X text 43 44 value;
#X obj 145 98 loadbang;
#X text 213 127 label;
#X msg 98 221 value \$1;
#X obj 110 283 s status;
#X obj 145 124 symbol \$1;
#X msg 191 245 \$1 \$2;
#X msg 168 178 symbol label;
#X obj 193 217 pack s s;
#X obj 256 148 inlet;
#X obj 18 136 route list;
#X msg 15 230 value \$1 \$2;
#X obj 19 167 t b l;
#X msg 274 251 data \$1 \$2;
#X obj 277 228 pack s f;
#X obj 74 182 t b f a;
#X obj 152 148 symbol;
#X connect 0 0 11 0;
#X connect 2 0 6 0;
#X connect 4 0 5 0;
#X connect 6 0 17 0;
#X connect 7 0 5 0;
#X connect 8 0 9 0;
#X connect 9 0 7 0;
#X connect 10 0 9 1;
#X connect 10 0 15 0;
#X connect 11 0 13 0;
#X connect 11 1 16 0;
#X connect 12 0 5 0;
#X connect 13 0 8 0;
#X connect 13 1 12 0;
#X connect 14 0 5 0;
#X connect 15 0 14 0;
#X connect 16 0 8 0;
#X connect 16 0 15 0;
#X connect 16 1 15 1;
#X connect 16 2 4 0;
#X connect 17 0 15 0;
#X connect 17 0 9 0;
