#N canvas 964 270 1544 930 10;
#X text 76 62 Multiline Synth Channel;
#X text 199 105 channel;
#X obj 103 109 notein;
#X obj 36 475 mtof;
#X obj 131 582 FmGen;
#X floatatom 205 159 5 0 0 0 - - -;
#X msg 92 529 channel \$1;
#X obj 99 228 spigot;
#X obj 209 186 ==;
#X obj 186 228 spigot;
#X obj 162 262 poly 2 1;
#X obj 160 298 pack 0 0 0;
#X obj 123 362 unpack 0 0;
#X obj 203 361 unpack 0 0;
#X obj 243 438 max;
#X obj 43 442 i;
#X obj 167 323 route 1 2;
#X obj 114 406 spigot;
#X obj 168 410 spigot;
#X obj 311 389 t b f;
#X obj 275 94 tgl 15 0 empty empty empty 17 7 0 10 -262144 -1 -1 1
1;
#X obj 209 206 ||;
#X text 284 77 pass through all channels (debug);
#X obj 56 636 route editmode;
#X obj 241 188 s \$0-channel;
#X obj 93 481 r \$0-channel;
#X obj 180 799 outlet~;
#X obj 302 583 SidGen;
#X msg 423 531 channel \$1;
#X obj 331 489 == 1;
#X obj 192 471 == 0;
#X obj 423 350 vradio 15 1 1 8 empty empty Synth 0 -8 0 10 -262144
-1 -1 1;
#X text 444 349 FM;
#X text 443 363 SID;
#X obj 311 641 route editmode;
#X obj 406 160 inlet;
#X text 408 136 edit enable;
#X obj 207 506 &&;
#X obj 362 511 &&;
#X obj 350 426 t b f;
#X obj 161 727 *~;
#X obj 279 726 *~;
#X obj 445 261 loadbang;
#X msg 434 299 0;
#X obj 58 689 vradio 15 1 0 11 empty empty FM 0 -8 0 10 -262144 -1
-1 9;
#X text 77 707 osc1;
#X text 76 720 osc2;
#X text 77 736 osc3;
#X text 77 749 osc4;
#X text 76 764 osc5;
#X text 76 779 osc6;
#X text 77 795 lfo;
#X text 76 807 carrier;
#X text 78 824 adsr;
#X obj 324 685 vradio 15 1 0 8 empty empty empty 0 -8 0 10 -262144
-1 -1 3;
#X text 345 702 osc1;
#X text 344 717 adsr1;
#X text 345 732 osc2;
#X text 344 747 adsr2;
#X text 344 761 osc3;
#X text 343 776 adsr3;
#X text 343 792 filter;
#X obj 51 96 inlet;
#X obj 5 214 unpack 0 0 0;
#X obj 277 119 select 1;
#X msg 276 145 -1;
#X obj 595 364 t b;
#X msg 610 398 0;
#X obj 630 260 midirealtimein;
#X obj 630 295 select 252;
#X text 649 222 noteoff on receive stop byte;
#X obj 403 191 route pass enable noteoff synth;
#X obj 200 124 f \$0;
#X obj 199 88 loadbang;
#X msg 164 529 synthenable \$1;
#X msg 321 533 synthenable \$1;
#X connect 2 0 7 0;
#X connect 2 1 9 0;
#X connect 2 2 8 0;
#X connect 3 0 4 0;
#X connect 3 0 27 0;
#X connect 4 0 40 0;
#X connect 4 1 23 0;
#X connect 5 0 8 1;
#X connect 5 0 24 0;
#X connect 6 0 4 2;
#X connect 7 0 10 0;
#X connect 8 0 21 0;
#X connect 9 0 10 1;
#X connect 10 0 11 0;
#X connect 10 1 11 1;
#X connect 10 2 11 2;
#X connect 11 0 16 0;
#X connect 12 0 17 0;
#X connect 12 1 14 0;
#X connect 12 1 17 1;
#X connect 13 0 18 0;
#X connect 13 1 18 1;
#X connect 13 1 19 0;
#X connect 14 0 27 1;
#X connect 14 0 4 1;
#X connect 15 0 3 0;
#X connect 16 0 12 0;
#X connect 16 1 13 0;
#X connect 17 0 15 0;
#X connect 18 0 15 0;
#X connect 19 0 14 0;
#X connect 19 1 14 1;
#X connect 20 0 21 1;
#X connect 20 0 64 0;
#X connect 21 0 9 1;
#X connect 21 0 7 1;
#X connect 23 0 44 0;
#X connect 25 0 6 0;
#X connect 25 0 28 0;
#X connect 27 0 41 0;
#X connect 27 1 34 0;
#X connect 28 0 27 2;
#X connect 29 0 38 0;
#X connect 29 0 41 1;
#X connect 30 0 37 0;
#X connect 30 0 40 1;
#X connect 31 0 30 0;
#X connect 31 0 29 0;
#X connect 34 0 54 0;
#X connect 35 0 71 0;
#X connect 37 0 74 0;
#X connect 38 0 75 0;
#X connect 39 0 37 0;
#X connect 39 0 38 0;
#X connect 39 1 38 1;
#X connect 39 1 37 1;
#X connect 40 0 26 0;
#X connect 41 0 26 0;
#X connect 42 0 43 0;
#X connect 43 0 31 0;
#X connect 62 0 63 0;
#X connect 63 0 10 0;
#X connect 63 1 10 1;
#X connect 64 0 65 0;
#X connect 65 0 5 0;
#X connect 66 0 67 0;
#X connect 67 0 27 1;
#X connect 67 0 4 1;
#X connect 68 0 69 0;
#X connect 69 0 67 0;
#X connect 71 0 20 0;
#X connect 71 1 39 0;
#X connect 71 2 66 0;
#X connect 71 3 31 0;
#X connect 72 0 5 0;
#X connect 73 0 72 0;
#X connect 74 0 4 2;
#X connect 75 0 27 2;
