#N canvas 434 190 779 747 10;
#X text 291 61 Wavetablbe generator for subtractive synthesis;
#X msg 323 196 \; 1wavetable sinesum 512 1;
#X msg 323 231 \; 2wavetable sinesum 512 1 0.5 0.33 0.25;
#X msg 324 289 \; 3wavetable sinesum 512 1 0.5 0.333333 0.25 0.2 0.166667
0.142857 0.125 0.111111 0.1 0.090909 0.833333 0.076823;
#X msg 318 400 \; 4wavetable sinesum 512 1 0 -0.1 0;
#X msg 311 562 \; 6wavetable sinesum 512 1 0 0.5 0;
#X msg 309 645 \; 7wavetable sinesum 512 1 0 0.33333 0 0.2 0 0.142857
0 0.111111 0 0.0909091 0 0.076923;
#X obj 105 80 table 1wavetable 512;
#X obj 107 108 table 2wavetable 512;
#X obj 106 132 table 3wavetable 512;
#X obj 106 156 table 4wavetable 512;
#X obj 107 180 table 5wavetable 512;
#X obj 107 204 table 6wavetable 512;
#X obj 107 226 table 7wavetable 512;
#X obj 276 112 loadbang;
#X obj 275 140 bng 15 250 50 0 empty empty empty 17 7 0 10 -262144
-1 -1;
#X obj 276 162 delay 100;
#X msg 133 282 \; 2wavetable normalize 1;
#X msg 127 328 \; 3wavetable normalize 1;
#X msg 127 378 \; 4wavetable normalize 1;
#X msg 124 428 \; 5wavetable normalize 1;
#X msg 117 499 \; 6wavetable normalize 1;
#X msg 110 560 \; 7wavetable normalize 1;
#X obj 267 192 t b b;
#X msg 310 479 \; 5wavetable sinesum 512 1 0 -0.111111 0 0.04 0 -0.0204088
0 0.0123457 0 -0.00826446;
#X connect 14 0 15 0;
#X connect 15 0 16 0;
#X connect 16 0 23 0;
#X connect 23 0 17 0;
#X connect 23 0 18 0;
#X connect 23 0 19 0;
#X connect 23 0 20 0;
#X connect 23 0 21 0;
#X connect 23 0 22 0;
#X connect 23 1 1 0;
#X connect 23 1 2 0;
#X connect 23 1 3 0;
#X connect 23 1 4 0;
#X connect 23 1 5 0;
#X connect 23 1 6 0;
#X connect 23 1 24 0;
